<?xml version="1.0" standalone="no"?>
<!DOCTYPE svg PUBLIC "-//W3C//DTD SVG 20010904//EN"
 "http://www.w3.org/TR/2001/REC-SVG-20010904/DTD/svg10.dtd">
<svg version="1.0" xmlns="http://www.w3.org/2000/svg"
 width="360.000000pt" height="360.000000pt" viewBox="0 0 360.000000 360.000000"
 preserveAspectRatio="xMidYMid meet">
<metadata>
Created by potrace 1.14, written by Peter Selinger 2001-2017
</metadata>
<g transform="translate(0.000000,360.000000) scale(0.100000,-0.100000)"
fill="#000000" stroke="none">
<path d="M1590 3105 c-267 -43 -519 -167 -712 -353 -218 -210 -350 -460 -393
-747 -51 -341 21 -670 209 -947 83 -123 91 -131 116 -118 16 9 18 15 10 30
-20 38 -11 48 68 78 221 85 433 134 692 159 258 24 522 4 795 -62 194 -46 398
-122 390 -143 -18 -47 -16 -60 6 -67 27 -9 33 -2 129 143 143 216 210 446 210
720 0 425 -193 810 -531 1062 -99 73 -300 173 -414 206 -188 53 -396 67 -575
39z m910 -419 c8 -31 9 -53 3 -73 -9 -25 -6 -32 26 -63 20 -19 44 -48 53 -65
10 -16 23 -37 30 -47 9 -13 9 -20 -1 -32 -10 -12 -33 -16 -96 -16 -78 0 -82
-1 -93 -25 -7 -14 -12 -36 -12 -48 0 -19 -28 -66 -85 -143 -6 -9 1 -32 23 -75
18 -34 32 -68 32 -76 0 -7 16 -45 35 -83 39 -78 47 -140 18 -140 -22 0 -104
84 -120 122 -13 28 -80 108 -92 108 -4 0 -12 -17 -17 -37 -6 -27 -19 -43 -44
-58 -19 -11 -69 -54 -112 -96 l-79 -76 3 -129 3 -128 113 -45 c62 -25 111 -49
109 -55 -5 -16 -51 -23 -145 -25 -80 -1 -222 23 -232 40 -3 4 0 68 7 140 6 73
9 137 7 141 -3 4 -20 8 -38 8 -35 0 -123 50 -132 75 -9 21 39 98 83 134 41 34
123 68 187 80 22 3 41 12 44 20 4 11 -5 12 -44 6 -82 -12 -155 -45 -207 -94
-53 -49 -69 -75 -97 -155 -38 -110 -103 -246 -135 -284 -39 -45 -90 -73 -155
-83 -61 -9 -398 15 -487 36 -126 29 -104 38 226 90 320 51 325 52 352 81 26
28 27 39 19 309 -2 84 1 109 19 153 48 118 149 240 235 281 75 37 146 45 264
33 231 -25 288 -13 330 71 20 39 23 55 17 97 -4 27 -18 66 -31 85 -29 43 -30
50 -6 40 121 -50 141 -50 142 0 0 11 7 31 16 43 22 31 48 14 64 -42z"/>
<path d="M1962 2249 c-66 -21 -128 -72 -158 -131 -13 -25 -13 -28 1 -28 8 0
15 5 15 10 0 6 22 33 48 59 52 52 137 91 197 91 19 0 35 5 35 10 0 16 -70 10
-138 -11z"/>
<path d="M1775 1100 c-3 -5 -1 -10 4 -10 6 0 11 5 11 10 0 6 -2 10 -4 10 -3 0
-8 -4 -11 -10z"/>
<path d="M1700 1081 c0 -12 -6 -21 -12 -21 -10 0 -10 -2 -1 -8 6 -4 13 -25 15
-47 3 -34 7 -40 28 -43 22 -2 23 -1 8 8 -12 7 -18 23 -18 45 0 24 5 35 18 38
16 4 16 5 0 6 -10 0 -18 7 -18 15 0 8 -4 18 -10 21 -5 3 -10 -3 -10 -14z"/>
<path d="M2136 1055 c-4 -22 -12 -57 -16 -78 -4 -20 -4 -39 0 -42 9 -6 20 19
20 46 0 14 7 19 28 19 43 0 56 -14 49 -49 -4 -17 -3 -31 2 -31 8 0 31 97 31
132 0 11 -4 16 -10 13 -5 -3 -10 -17 -10 -31 0 -25 -14 -29 -57 -18 -17 5 -23
15 -25 43 l-4 36 -8 -40z"/>
<path d="M1840 1050 c-36 -36 -18 -90 30 -90 50 0 69 66 28 94 -29 20 -34 20
-58 -4z m58 -31 c3 -30 -18 -52 -42 -43 -19 7 -22 60 -3 67 24 11 42 1 45 -24z"/>
<path d="M1288 1029 c3 -22 1 -30 -6 -25 -16 10 -49 -10 -57 -34 -9 -29 20
-70 50 -70 13 0 27 5 30 10 4 6 11 7 17 4 12 -8 6 42 -12 109 -13 45 -28 49
-22 6z m12 -58 c20 -38 -16 -74 -45 -45 -18 19 -19 36 -3 52 18 18 36 15 48
-7z"/>
<path d="M1583 1053 c-23 -9 -14 -18 19 -18 17 0 33 -6 35 -12 3 -8 -4 -13
-19 -13 -33 0 -51 -14 -46 -36 3 -15 12 -19 46 -19 l44 -1 -7 46 c-4 25 -9 48
-12 53 -5 8 -41 8 -60 0z m57 -63 c0 -15 -38 -32 -45 -20 -3 5 -3 15 0 20 8
13 45 13 45 0z"/>
<path d="M1783 1010 c0 -30 2 -43 4 -27 2 15 2 39 0 55 -2 15 -4 2 -4 -28z"/>
<path d="M1946 1035 c-9 -32 -7 -75 3 -75 6 0 11 17 13 38 2 30 7 38 26 40 20
3 22 -1 22 -43 0 -28 4 -44 10 -40 14 9 12 81 -2 93 -22 17 -66 9 -72 -13z"/>
<path d="M1476 1034 c-43 -42 2 -110 58 -88 26 10 18 19 -16 19 -30 0 -33 3
-33 30 0 25 4 30 28 33 15 2 25 8 22 13 -9 14 -42 11 -59 -7z"/>
<path d="M1118 1018 c-16 -5 -28 -14 -28 -20 0 -16 32 -122 39 -130 9 -10 91
12 91 24 0 6 -11 7 -27 3 -48 -13 -58 -11 -61 12 -3 17 5 26 30 37 l33 15 -40
-2 c-34 -2 -40 1 -43 20 -2 17 3 23 27 28 34 7 52 25 24 24 -10 0 -30 -5 -45
-11z"/>
<path d="M1413 988 c2 -37 -1 -43 -18 -43 -14 0 -22 10 -28 38 -5 20 -12 37
-17 37 -8 0 3 -70 14 -88 9 -15 43 -16 51 -2 4 6 11 8 16 5 10 -7 12 19 3 64
-9 45 -23 38 -21 -11z"/>
<path d="M2280 990 c-36 -36 -18 -90 30 -90 50 0 69 66 28 94 -29 20 -34 20
-58 -4z m58 -31 c4 -34 -22 -57 -43 -39 -18 15 -19 42 -3 58 19 19 43 10 46
-19z"/>
<path d="M2396 971 c-11 -19 -36 -124 -31 -129 3 -3 8 3 11 14 4 17 13 20 47
20 36 -1 42 2 51 27 13 37 -1 60 -43 68 -17 4 -33 4 -35 0z m62 -42 c3 -30
-18 -52 -42 -43 -19 7 -21 45 -4 62 19 19 43 10 46 -19z"/>
<path d="M1555 864 c-100 -11 -270 -47 -380 -80 -66 -20 -130 -38 -142 -41
-13 -3 -23 -9 -23 -14 0 -10 163 -107 233 -138 75 -34 218 -79 309 -96 247
-48 515 -17 765 87 83 34 246 129 245 142 -2 19 -263 95 -420 123 -84 15 -494
26 -587 17z"/>
</g>
</svg>
